PathFileType	4	(X/Y/Z)	/Users/niels/Desktop/University/Third Semester/Perception and Action/Exam/Gymnastics Motion Tracking/Code for Gym Tracking/Analyzed Data/Webcam_Backflip/id8_4_pure_Sports2D/id8_4_pure_Sports2D_px_person00.trc
DataRate	CameraRate	NumFrames	NumMarkers	Units	OrigDataRate	OrigDataStartFrame	OrigNumFrames
29.81132075471698	29.81132075471698	12	22	m	29.81132075471698	19	159
Frame#	Time	Hip			RHip			RKnee			RAnkle			RBigToe			RSmallToe			RHeel			LHip			LKnee			LAnkle			LBigToe			LSmallToe			LHeel			Neck			Head			Nose			RShoulder			RElbow			RWrist			LShoulder			LElbow			LWrist		
		X1	Y1	Z1	X2	Y2	Z2	X3	Y3	Z3	X4	Y4	Z4	X5	Y5	Z5	X6	Y6	Z6	X7	Y7	Z7	X8	Y8	Z8	X9	Y9	Z9	X10	Y10	Z10	X11	Y11	Z11	X12	Y12	Z12	X13	Y13	Z13	X14	Y14	Z14	X15	Y15	Z15	X16	Y16	Z16	X17	Y17	Z17	X18	Y18	Z18	X19	Y19	Z19	X20	Y20	Z20	X21	Y21	Z21	X22	Y22	Z22
19	0.6373417721518987	0.9367313857206776	-0.6589017004062511	0.0	0.9378409246584888	-0.6596408785087025	0.0	1.0014170585497744	-0.7348359726483211	0.0	0.962875024398078	-0.8200816063218745	0.0	0.9891380281580674	-0.8335473216020618	0.0	0.9821850277411938	-0.8349082228548848	0.0	0.9527120473102649	-0.827941320322777	0.0	0.9398960868959261	-0.6560432310175406	0.0	0.9991582465545056	-0.7311091561538516	0.0	0.9623958632576838	-0.8152334222746849	0.0	0.9924543843550822	-0.8112912701172095	0.0	0.9778770247727143	-0.823850592024465	0.0	0.9513251664096342	-0.8220289100790187	0.0	0.9876592089069612	-0.5436923275891542	0.0	1.008396901591077	-0.48281131979517894	0.0	1.0213147322440104	-0.5130939094269563	0.0	0.9833883841347695	-0.5618867867404207	0.0	1.003903317229216	-0.6006016361165977	0.0	1.0275166687807242	-0.628285514791404	0.0	0.979143170898424	-0.5545315772804303	0.0	1.0012736796341766	-0.5912087980325702	0.0	1.0258825026067957	-0.6169758136459305	0.0
20	0.6708860759493671	0.9385231669835539	-0.6616706683939859	0.0	0.9393357009990857	-0.6623652041924855	0.0	0.9973005909691722	-0.742860275291835	0.0	0.9630633625743837	-0.8284793733649629	0.0	0.9880470943071235	-0.8415888836245163	0.0	0.9812004077733959	-0.8432477366132263	0.0	0.9535478051297545	-0.8372182990941744	0.0	0.941208311828024	-0.6588351567516927	0.0	0.994940418974628	-0.7392328578664218	0.0	0.9622916183106875	-0.8236372560608166	0.0	0.9905976224618025	-0.8294790085316299	0.0	0.9769497583848729	-0.8308895124043089	0.0	0.9513229916725561	-0.830800112927258	0.0	0.9788973998855314	-0.5421369339618776	0.0	0.9948885365301969	-0.47921984964030284	0.0	1.0096466076430097	-0.5098962032412693	0.0	0.9759560694933163	-0.5585984375934842	0.0	1.0160650314693285	-0.584209336215827	0.0	1.0546656567395716	-0.5980556087996611	0.0	0.9719654240827478	-0.5519733050455353	0.0	1.0134790555517172	-0.576577445537611	0.0	1.0517137032861639	-0.5884591456363554	0.0
21	0.7044303797468354	0.9414846526584466	-0.6554244456750165	0.0	0.9421561012823141	-0.6559100927244349	0.0	0.993152765794849	-0.7422058524296608	0.0	0.963071595148756	-0.82962547253067	0.0	0.9867124458968436	-0.8436211130296658	0.0	0.9796793286159706	-0.8457072493908203	0.0	0.9542887634090064	-0.8399031901725812	0.0	0.9435309103942466	-0.6524333299418077	0.0	0.9905867380129283	-0.7385472952853693	0.0	0.9621140367016552	-0.8244230134439716	0.0	0.9883628294082084	-0.8366172621186765	0.0	0.9761388995235607	-0.8327980027193748	0.0	0.951147989900856	-0.8328833498491394	0.0	0.9693233121752466	-0.5327220756683002	0.0	0.9803200599374904	-0.46788270535370474	0.0	0.996452742639445	-0.4987105309223652	0.0	0.9676044593344213	-0.546748443184711	0.0	1.0198128122090855	-0.5536475997639397	0.0	1.0655623013352757	-0.5510657309332926	0.0	0.963981790677803	-0.5403400798083032	0.0	1.0170512727494923	-0.5478052266192942	0.0	1.061898753234801	-0.5433228920544025	0.0
22	0.7379746835443037	0.9454527297998866	-0.6396486679922947	0.0	0.9462643410183977	-0.6399326875172097	0.0	0.9903072249241504	-0.7316612715786048	0.0	0.9632795220913547	-0.82205004358015	0.0	0.9849367341728371	-0.8385721429607171	0.0	0.977589423249148	-0.8409032143615043	0.0	0.9552109156960318	-0.8340869210230228	0.0	0.9468008218740241	-0.6365549485979939	0.0	0.9874653265206949	-0.7278338717383271	0.0	0.9621878443563403	-0.8160503774745251	0.0	0.9862933664915463	-0.832515915656872	0.0	0.9757962072483826	-0.8276165013435206	0.0	0.9512553232867892	-0.8261744066998326	0.0	0.9589491218223576	-0.5156022919958259	0.0	0.9644245554324101	-0.4492585399951319	0.0	0.9816482853311951	-0.4798389044852899	0.0	0.9581667301922699	-0.5268817661723431	0.0	1.0127150787410963	-0.5127574221881711	0.0	1.056739535453116	-0.49494024860034525	0.0	0.95495004194376	-0.5204293311316279	0.0	1.0099226024464374	-0.508852711727243	0.0	1.0532332379776856	-0.4890910544091463	0.0
23	0.7715189873417722	0.949980425953637	-0.6153051856363717	0.0	0.9511987042631769	-0.6155395961464704	0.0	0.9905357922138298	-0.7111153607397159	0.0	0.9644477961120869	-0.8049127698946518	0.0	0.9829822507188423	-0.8257846078590175	0.0	0.9754689230053181	-0.8279580920349827	0.0	0.9568768601088598	-0.8183520933802261	0.0	0.9507358844788196	-0.6123791800329279	0.0	0.9873756510591136	-0.7070229047254798	0.0	0.9632959504644037	-0.7978593414824305	0.0	0.9849881545665685	-0.8179102927082663	0.0	0.9761710715511778	-0.8141632051877601	0.0	0.9523337856595752	-0.8094265229002721	0.0	0.9477621906774226	-0.4921056428904122	0.0	0.9467980355217765	-0.4251222878933538	0.0	0.9652097220099108	-0.4548326554432207	0.0	0.9476675928238547	-0.5005700528422022	0.0	0.9947540828907294	-0.46664342370608736	0.0	1.0292222659298673	-0.4374465808894487	0.0	0.9447271311537794	-0.4943728413902233	0.0	0.9924945276090644	-0.4649840222536896	0.0	1.0267483798141044	-0.43375925167414653	0.0
24	0.8050632911392405	0.9543908563482109	-0.5846725562029493	0.0	0.9561745310914325	-0.5850702320082732	0.0	0.9953996233620119	-0.681284820314287	0.0	0.9675061670287368	-0.7780473040476961	0.0	0.9817650106207713	-0.8049409703221118	0.0	0.9745098510988609	-0.8065010350182278	0.0	0.9600393773776839	-0.7920951617537945	0.0	0.9548007147319025	-0.5822258057446278	0.0	0.991887437109358	-0.6768905208922661	0.0	0.966432890061974	-0.770136358218216	0.0	0.9849419628402496	-0.7941451323057354	0.0	0.9773970937249241	-0.7922819496276441	0.0	0.9550752190040456	-0.7825176648990866	0.0	0.9358093694459133	-0.4644878396577778	0.0	0.927267053542492	-0.3982370497649548	0.0	0.9473519986682577	-0.42619011988140726	0.0	0.9363288582061163	-0.47019935838147353	0.0	0.9683284538122912	-0.4203932806518867	0.0	0.9880762210818612	-0.3840141723158937	0.0	0.9333812351313198	-0.464970020903173	0.0	0.9671952399721172	-0.4212192890015955	0.0	0.9872351271284441	-0.3831540051200856	0.0
25	0.8386075949367088	0.957946140639286	-0.5508703372671675	0.0	0.9603364179368411	-0.551647478612293	0.0	1.0053313380102669	-0.6433215734496955	0.0	0.9732189585565267	-0.7420369705575044	0.0	0.9827625715079016	-0.7758822294006673	0.0	0.9763087305465715	-0.7765063342106017	0.0	0.9654242629077078	-0.7557502287233315	0.0	0.9583568594608067	-0.5490830942930739	0.0	1.00145082375575	-0.6386051832298999	0.0	0.972383103079437	-0.7339144924084268	0.0	0.9868236742257609	-0.762555982770494	0.0	0.9800789822097743	-0.7624109853123636	0.0	0.9600158516443904	-0.7462344967342396	0.0	0.9232222994911824	-0.4354394640979769	0.0	0.9060941711007636	-0.3716889490132964	0.0	0.9285563263907073	-0.3967874647148047	0.0	0.9244156440688915	-0.4386438362094422	0.0	0.9376700264242583	-0.3781611031888915	0.0	0.9411804533164487	-0.3369650643570782	0.0	0.9212630151270697	-0.4349973061211616	0.0	0.9378659130905104	-0.3813395230182748	0.0	0.9421035093677497	-0.33987619219912657	0.0
26	0.8721518987341772	0.960172035232089	-0.5172368771134136	0.0	0.9631431365140903	-0.5185830675234531	0.0	1.0189997984239587	-0.5985145481860882	0.0	0.9820285160008306	-0.6981452453614062	0.0	0.9875999868347695	-0.7384174564195647	0.0	0.9823671687147815	-0.7380917585600061	0.0	0.9736406374036525	-0.7107405252668575	0.0	0.9609165039932546	-0.5161473169283614	0.0	1.0148319992734807	-0.5934974461579903	0.0	0.9815139958317098	-0.6905526335686609	0.0	0.9917514548181986	-0.7238801756794443	0.0	0.9856519692604888	-0.7249259050409977	0.0	0.9677057161516834	-0.701923588747347	0.0	0.9102582738007119	-0.4076260685473012	0.0	0.8839730025822282	-0.34829758649993786	0.0	0.9094638361362962	-0.36930965499382185	0.0	0.912226310661013	-0.40884791196496134	0.0	0.9078203533162765	-0.342745451999795	0.0	0.8971962717700543	-0.29705615961974907	0.0	0.9089456662146703	-0.4069273381310516	0.0	0.9091115374890312	-0.3476820516877356	0.0	0.8995527795718514	-0.3044488411683709	0.0
27	0.9056962025316455	0.9611700708235509	-0.4865142216093858	0.0	0.9646647769307294	-0.4885455205776009	0.0	1.0333244372538155	-0.5482577192560567	0.0	0.9940605332263919	-0.648125043687671	0.0	0.9976724272313797	-0.6924048194025412	0.0	0.9938124950549961	-0.6914856109947131	0.0	0.98521459367643	-0.6592911458355664	0.0	0.9623330513348959	-0.4861264306451392	0.0	1.0290532599740785	-0.543208559052783	0.0	0.9937771262331367	-0.6415563393956898	0.0	1.0009807145746312	-0.6782821124828671	0.0	0.9957139032991975	-0.679944099639628	0.0	0.9789513767959476	-0.6515461446627097	0.0	0.8973655917682912	-0.3834218313064287	0.0	0.8619239427184003	-0.3303083448115084	0.0	0.8907342482716444	-0.3459357789928548	0.0	0.9001834953751052	-0.38333590179809907	0.0	0.8834590803659949	-0.31556339064927963	0.0	0.8633368955979733	-0.2652199696876226	0.0	0.8970182504779052	-0.382925724134944	0.0	0.885290237990043	-0.3213975906228903	0.0	0.8664679978128553	-0.2768570701014606	0.0
28	0.9392405063291138	0.9616249140901126	-0.4601602836958163	0.0	0.9655579180230134	-0.46283612680860575	0.0	1.0441995623158458	-0.49432474587343533	0.0	1.008901688356275	-0.593902487269312	0.0	1.0135971827566046	-0.6379689803190852	0.0	1.0110589783142547	-0.6370967444926845	0.0	1.0002394746687981	-0.6039916565552114	0.0	0.9628483707623727	-0.4604520778738922	0.0	1.0399537782466681	-0.48992906276071624	0.0	1.0085597898431868	-0.5885176415979387	0.0	1.0151281898665847	-0.6256827541083207	0.0	1.010861387887285	-0.6275113834976578	0.0	0.9943691525512436	-0.5976002614885279	0.0	0.8852434376416656	-0.3647208029098746	0.0	0.8412560009590079	-0.31927591898757496	0.0	0.873107418726038	-0.32827109076237976	0.0	0.8889542131513101	-0.36382476894420046	0.0	0.867909369931226	-0.29687784493549996	0.0	0.8439079930080998	-0.2423125648053992	0.0	0.8860098580418068	-0.36470378509092743	0.0	0.8693565119571621	-0.30277335213712414	0.0	0.8468752566384316	-0.25680023131087376	0.0
29	0.9727848101265822	0.9625203117757853	-0.43823987872319875	0.0	0.9667648473527305	-0.4413089555343339	0.0	1.047707219166656	-0.4393638544138757	0.0	1.0250984618247438	-0.5372050604392813	0.0	1.0341020120134312	-0.5756674093725797	0.0	1.0328241891839147	-0.5756187729156689	0.0	1.0175235820490038	-0.5470371302006	0.0	0.9630736494897861	-0.4390386458582043	0.0	1.0434029842923431	-0.43654021751562927	0.0	1.024313406872314	-0.5328468153121974	0.0	1.0330436362206805	-0.5661516626835185	0.0	1.029700677397959	-0.5679508554552485	0.0	1.0131799366403973	-0.5422524584998684	0.0	0.8747938683730219	-0.3527606539940693	0.0	0.8234915778876366	-0.3160385349256558	0.0	0.8575185886774646	-0.31744587557022225	0.0	0.8794841578206746	-0.35118243757101547	0.0	0.8624249251048248	-0.28629306279762146	0.0	0.8397427914350047	-0.22847145176660244	0.0	0.876555618978587	-0.3532846966377349	0.0	0.8623203334166337	-0.2916430297566865	0.0	0.8414540725328711	-0.24381349390396637	0.0
30	1.0063291139240507	0.9647071536206616	-0.41976957479435145	0.0	0.9690461970905401	-0.4228094913575953	0.0	1.041399703608627	-0.38713346075925836	0.0	1.0398873632440455	-0.47948213510005194	0.0	1.0550719800539194	-0.5068785073845232	0.0	1.055134302596707	-0.5084006183292685	0.0	1.033965120103057	-0.4897801135130428	0.0	0.9638331751327803	-0.42074155561095133	0.0	1.0367567364142383	-0.38662263784058326	0.0	1.0383717265808474	-0.47576758612120396	0.0	1.050874883631913	-0.5008138703610607	0.0	1.0483177130548538	-0.5026170940079209	0.0	1.032459976781655	-0.4866475110126943	0.0	0.866958200921572	-0.3480116473530131	0.0	0.8101088874250454	-0.3208379075613044	0.0	0.8449241777251603	-0.31432047185835493	0.0	0.8727724055436571	-0.3455174118303039	0.0	0.8659779790958986	-0.2830569751429238	0.0	0.8483334447662071	-0.22325607138390505	0.0	0.869519098260706	-0.3489182512721833	0.0	0.8634150210121039	-0.2876253662805334	0.0	0.8479292025761246	-0.2376283395589819	0.0
